<svg width="20" height="21" viewBox="0 0 20 21" fill="none" xmlns="http://www.w3.org/2000/svg">
<path d="M20 9.97059C20 15.5 15.4853 19.9706 9.97059 19.9706C8.11765 19.9706 6.39706 19.4706 4.91177 18.5882C4.76471 18.5588 4.52941 18.6177 4.42647 18.6471C3.85294 18.7794 3.17647 18.9706 2.91176 19.0441C1.97059 19.2059 1.51471 19.1324 1.26471 18.9706C1.05882 18.8382 1.10294 18.6765 1.11765 18.6471C1.14706 18.5588 1.19118 18.5294 1.26471 18.4412C1.36765 18.3382 1.54412 18.2059 1.83824 17.8088C2.22059 17.2206 2.30882 16.5735 2.29412 16.3088C0.852941 14.5882 0 12.3676 0 9.97059C0 4.44118 4.45588 0 9.97059 0C15.4853 0 20 4.44118 20 9.97059ZM9.97059 17.5882C14.1618 17.5882 17.6176 14.1618 17.6176 9.97059C17.6176 5.77941 14.1618 2.38235 9.97059 2.38235C5.77941 2.38235 2.39706 5.77941 2.39706 9.97059C2.39706 14.1618 5.77941 17.5882 9.97059 17.5882Z" fill="#274769"/>
<path fill-rule="evenodd" clip-rule="evenodd" d="M16.4853 2.39706C14.7353 0.897059 12.4706 0 9.98529 0C4.47059 0 0 4.47059 0 10C0 12.4118 0.852941 14.6177 2.26471 16.3382C2.27941 16.6176 2.17647 17.2206 1.79412 17.8088C1.5 18.2059 1.33824 18.3529 1.23529 18.4559C1.14706 18.5294 1.11765 18.5735 1.08824 18.6618C1.07353 18.6912 1.07353 18.8824 1.27941 19.0147C1.52941 19.1765 1.98529 19.2353 2.92647 19.0882C3.19118 19.0147 3.88235 18.8235 4.44118 18.6912C4.54412 18.6618 4.79412 18.6029 4.92647 18.6324C6.41177 19.5147 8.14706 20.0147 9.98529 20.0147C12.6471 20.0147 15.0735 18.9706 16.8676 17.2647C17 17.0882 17.0294 16.8382 17.0441 16.7647C17.0735 16.0735 16.3971 15.75 16.2647 15.6912C15.8529 15.5 15.1471 15.6618 14.8824 15.8088C13.5588 16.9265 11.8529 17.6029 9.98529 17.6029C5.79412 17.6029 2.41176 14.2059 2.41176 10.0147C2.41176 5.82353 5.80882 2.42647 9.98529 2.42647C11.6765 2.42647 13.25 2.9853 14.5147 3.92647L14.5 3.91177C14.6176 4 15.0147 4.25 15.7353 3.97059C16.0588 3.85294 16.5882 3.42647 16.6471 3.14706C16.6912 2.88235 16.5735 2.57353 16.4853 2.39706Z" fill="#3399FF"/>
<path d="M13.6032 11.3969C14.3826 11.3969 15.0297 10.7645 15.0297 9.97042C15.0297 9.1763 14.3973 8.54395 13.6032 8.54395C12.8091 8.54395 12.1768 9.1763 12.1768 9.97042C12.1768 10.7645 12.8238 11.3969 13.6032 11.3969Z" fill="#59A2F6"/>
<path d="M9.97139 11.3969C10.7508 11.3969 11.3979 10.7645 11.3979 9.97042C11.3979 9.1763 10.7655 8.54395 9.97139 8.54395C9.17728 8.54395 8.54492 9.1763 8.54492 9.97042C8.54492 10.7645 9.17728 11.3969 9.97139 11.3969Z" fill="#4480C2"/>
<path d="M6.33858 11.3969C7.11799 11.3969 7.76505 10.7645 7.76505 9.97042C7.76505 9.1763 7.1327 8.54395 6.33858 8.54395C5.54446 8.54395 4.91211 9.1763 4.91211 9.97042C4.91211 10.7498 5.54446 11.3969 6.33858 11.3969Z" fill="#375D86"/>
</svg>
